<svg width="24" height="24" viewBox="0 0 24 24" fill="none" xmlns="http://www.w3.org/2000/svg">
<path d="M17.913 8.93C17.7977 7.57764 17.2223 6.30566 16.2828 5.32612C15.3433 4.34657 14.0964 3.71864 12.75 3.547V3C12.75 2.80109 12.671 2.61032 12.5303 2.46967C12.3897 2.32902 12.1989 2.25 12 2.25C11.8011 2.25 11.6103 2.32902 11.4697 2.46967C11.329 2.61032 11.25 2.80109 11.25 3V3.547C9.90347 3.71868 8.65647 4.34675 7.71694 5.3265C6.77741 6.30625 6.20212 7.57846 6.087 8.931L5.835 10.963L5.834 10.973C5.73879 12.1056 5.2276 13.1629 4.399 13.941L4.389 13.951C4.148 14.176 3.886 14.421 3.719 14.91C3.565 15.363 3.5 16.001 3.5 17.015C3.5 17.358 3.562 17.669 3.718 17.93C3.879 18.2 4.111 18.369 4.361 18.475C4.601 18.576 4.866 18.625 5.118 18.657C5.287 18.678 5.475 18.694 5.663 18.71L5.922 18.733C7.314 18.864 9.386 19 12 19C14.1158 19.005 16.2305 18.9082 18.337 18.71C18.525 18.694 18.714 18.678 18.882 18.657C19.134 18.625 19.399 18.577 19.639 18.475C19.9068 18.3679 20.1324 18.1766 20.282 17.93C20.438 17.669 20.5 17.358 20.5 17.015C20.5 16.001 20.435 15.363 20.28 14.91C20.114 14.421 19.852 14.176 19.612 13.95L19.602 13.941C18.773 13.1631 18.2615 12.1058 18.166 10.973V10.963L17.913 8.93ZM12 4.5C13.2376 4.49998 14.43 4.96508 15.3408 5.80305C16.2516 6.64102 16.8142 7.79067 16.917 9.024V9.034L17.17 11.066C17.2879 12.442 17.9101 13.7259 18.917 14.671C19.147 14.886 19.25 14.987 19.334 15.232C19.431 15.519 19.5 16.014 19.5 17.015C19.5 17.245 19.458 17.36 19.424 17.417C19.394 17.467 19.347 17.512 19.248 17.554C19.138 17.601 18.982 17.636 18.758 17.664C18.608 17.684 18.453 17.697 18.278 17.712L17.984 17.738C15.9944 17.9172 13.9976 18.0047 12 18C9.42 18 7.38 17.866 6.016 17.738L5.722 17.712C5.56174 17.6991 5.40172 17.6834 5.242 17.665C5.07469 17.6491 4.91006 17.6121 4.752 17.555C4.652 17.512 4.606 17.467 4.576 17.417C4.542 17.36 4.5 17.245 4.5 17.015C4.5 16.014 4.569 15.518 4.666 15.232C4.75 14.987 4.853 14.886 5.083 14.671C6.08993 13.7259 6.7121 12.442 6.83 11.066L7.082 9.034L7.083 9.024C7.18584 7.79067 7.74843 6.64102 8.65919 5.80305C9.56996 4.96508 10.7624 4.49998 12 4.5ZM7.56 19.55C7.52746 19.4242 7.44726 19.3161 7.33637 19.2484C7.22547 19.1807 7.0926 19.1589 6.96588 19.1875C6.83916 19.2161 6.72855 19.2929 6.65746 19.4016C6.58636 19.5103 6.56038 19.6425 6.585 19.77C6.71611 20.3515 6.99354 20.8898 7.391 21.334C7.71938 21.701 8.1215 21.9945 8.57108 22.1954C9.02065 22.3963 9.50757 22.5001 10 22.5C10.4924 22.5001 10.9793 22.3963 11.4289 22.1954C11.8785 21.9945 12.2806 21.701 12.609 21.334C12.6976 21.2352 12.7433 21.1053 12.7361 20.9728C12.7289 20.8403 12.6693 20.7161 12.5705 20.6275C12.4717 20.5389 12.3418 20.4932 12.2093 20.5004C12.0768 20.5076 11.9526 20.5672 11.864 20.666C11.6295 20.9284 11.3422 21.1383 11.021 21.282C10.6998 21.4257 10.3519 21.5 10 21.5C9.50988 21.5016 9.0302 21.3585 8.62106 21.0886C8.21192 20.8188 7.89152 20.4342 7.7 19.983C7.64027 19.8432 7.59341 19.6983 7.56 19.55Z" fill="#247CFF"/>
</svg>
