<svg width="20" height="20" viewBox="0 0 20 20" fill="none" xmlns="http://www.w3.org/2000/svg">
<path d="M10 0C8.02219 0 6.08879 0.58649 4.4443 1.6853C2.79981 2.78412 1.51809 4.3459 0.761209 6.17316C0.00433284 8.00042 -0.1937 10.0111 0.192152 11.9509C0.578004 13.8907 1.53041 15.6725 2.92894 17.0711C4.32746 18.4696 6.10929 19.422 8.0491 19.8078C9.98891 20.1937 11.9996 19.9957 13.8268 19.2388C15.6541 18.4819 17.2159 17.2002 18.3147 15.5557C19.4135 13.9112 20 11.9778 20 10C19.9972 7.34869 18.9427 4.80678 17.068 2.93202C15.1932 1.05727 12.6513 0.00279983 10 0ZM13.4615 6.92308C13.6897 6.92308 13.9128 6.99075 14.1026 7.11753C14.2923 7.24432 14.4402 7.42453 14.5276 7.63536C14.6149 7.8462 14.6377 8.0782 14.5932 8.30203C14.5487 8.52585 14.4388 8.73145 14.2774 8.89281C14.1161 9.05418 13.9105 9.16408 13.6866 9.2086C13.4628 9.25312 13.2308 9.23027 13.02 9.14294C12.8091 9.0556 12.6289 8.90771 12.5022 8.71796C12.3754 8.52821 12.3077 8.30513 12.3077 8.07692C12.3077 7.7709 12.4293 7.47742 12.6456 7.26103C12.862 7.04464 13.1555 6.92308 13.4615 6.92308ZM6.53846 6.92308C6.76667 6.92308 6.98976 6.99075 7.17951 7.11753C7.36926 7.24432 7.51715 7.42453 7.60448 7.63536C7.69181 7.8462 7.71466 8.0782 7.67014 8.30203C7.62562 8.52585 7.51573 8.73145 7.35436 8.89281C7.19299 9.05418 6.98739 9.16408 6.76357 9.2086C6.53974 9.25312 6.30774 9.23027 6.09691 9.14294C5.88607 9.0556 5.70586 8.90771 5.57908 8.71796C5.45229 8.52821 5.38462 8.30513 5.38462 8.07692C5.38462 7.7709 5.50618 7.47742 5.72257 7.26103C5.93896 7.04464 6.23245 6.92308 6.53846 6.92308ZM14.6154 14.6154C13.6538 14.6154 13.1683 13.9673 12.8462 13.5385C12.5577 13.1538 12.4692 13.0769 12.3077 13.0769C12.1462 13.0769 12.0606 13.15 11.7692 13.5385C11.4471 13.9673 10.9615 14.6154 10 14.6154C9.03846 14.6154 8.55769 13.9673 8.23077 13.5385C7.94231 13.1538 7.85385 13.0769 7.69231 13.0769C7.53077 13.0769 7.4452 13.15 7.15385 13.5385C6.83173 13.9673 6.34616 14.6154 5.38462 14.6154C5.18061 14.6154 4.98495 14.5343 4.84069 14.3901C4.69643 14.2458 4.61539 14.0502 4.61539 13.8462C4.61539 13.6421 4.69643 13.4465 4.84069 13.3022C4.98495 13.158 5.18061 13.0769 5.38462 13.0769C5.54616 13.0769 5.63173 13.0038 5.92308 12.6154C6.25 12.1865 6.73077 11.5385 7.69231 11.5385C8.65385 11.5385 9.13462 12.1865 9.46154 12.6154C9.75 13 9.83846 13.0769 10 13.0769C10.1615 13.0769 10.2471 13.0038 10.5385 12.6154C10.8654 12.1865 11.3462 11.5385 12.3077 11.5385C13.2692 11.5385 13.7548 12.1865 14.0769 12.6154C14.3654 13 14.4538 13.0769 14.6154 13.0769C14.8194 13.0769 15.0151 13.158 15.1593 13.3022C15.3036 13.4465 15.3846 13.6421 15.3846 13.8462C15.3846 14.0502 15.3036 14.2458 15.1593 14.3901C15.0151 14.5343 14.8194 14.6154 14.6154 14.6154Z" fill="white"/>
</svg>
