<svg width="25" height="20" viewBox="0 0 25 20" fill="none" xmlns="http://www.w3.org/2000/svg">
<path d="M6.25 20C4.52652 20 3.05417 19.3437 1.83295 18.0312C0.611742 16.7187 0.000757576 15.1146 0 13.2187C0 11.5937 0.445076 10.1458 1.33523 8.875C2.22538 7.60417 3.39015 6.79167 4.82955 6.4375C5.30303 4.52083 6.25 2.96875 7.67045 1.78125C9.09091 0.59375 10.7008 0 12.5 0C14.7159 0 16.5958 0.849167 18.1398 2.5475C19.6837 4.24583 20.4553 6.31333 20.4545 8.75C21.7614 8.91667 22.8458 9.53667 23.708 10.61C24.5701 11.6833 25.0008 12.9383 25 14.375C25 15.9375 24.503 17.2658 23.5091 18.36C22.5152 19.4542 21.3076 20.0008 19.8864 20H6.25Z" fill="white"/>
</svg>
