<svg width="15" height="20" viewBox="0 0 15 20" fill="none" xmlns="http://www.w3.org/2000/svg">
<path d="M14.8191 9.79044L5.27253 19.7892C5.17136 19.8947 5.03783 19.9653 4.89207 19.9901C4.74631 20.0149 4.59624 19.9928 4.46451 19.9269C4.33277 19.8611 4.22652 19.7551 4.16178 19.6251C4.09705 19.495 4.07734 19.3479 4.10564 19.2059L5.35521 13.0959L0.442995 11.2928C0.337498 11.2542 0.24342 11.1907 0.169164 11.1079C0.0949091 11.0251 0.0427897 10.9256 0.0174625 10.8183C-0.00786462 10.711 -0.00561056 10.5993 0.0240232 10.493C0.0536569 10.3868 0.109747 10.2894 0.187283 10.2096L9.73384 0.210801C9.83501 0.10526 9.96855 0.0347489 10.1143 0.00990681C10.2601 -0.0149353 10.4101 0.00723982 10.5419 0.073086C10.6736 0.138932 10.7799 0.244877 10.8446 0.374932C10.9093 0.504987 10.929 0.652097 10.9007 0.794062L9.64775 6.9108L14.56 8.71141C14.6647 8.75024 14.758 8.8137 14.8317 8.89616C14.9054 8.97862 14.9571 9.07755 14.9824 9.18422C15.0077 9.29088 15.0057 9.40198 14.9766 9.50772C14.9475 9.61345 14.8923 9.71055 14.8157 9.79044H14.8191Z" fill="white"/>
</svg>
