<svg width="16" height="16" viewBox="0 0 16 16" fill="none" xmlns="http://www.w3.org/2000/svg">
<path d="M11.2735 2.98296L13.017 4.7264M12.3944 1.44704L7.67795 6.16349C7.43353 6.40631 7.26721 6.71659 7.2003 7.05457L6.76465 9.23532L8.94538 8.79884C9.28303 8.73131 9.59268 8.56577 9.83645 8.32201L14.5529 3.60556C14.6946 3.46383 14.807 3.29557 14.8837 3.11039C14.9604 2.92521 14.9999 2.72674 14.9999 2.5263C14.9999 2.32586 14.9604 2.12739 14.8837 1.94221C14.807 1.75703 14.6946 1.58877 14.5529 1.44704C14.4111 1.30531 14.2429 1.19289 14.0577 1.11618C13.8725 1.03948 13.674 1 13.4736 1C13.2732 1 13.0747 1.03948 12.8895 1.11618C12.7043 1.19289 12.5361 1.30531 12.3944 1.44704Z" stroke="#A8A8A8" stroke-width="2" stroke-linecap="round" stroke-linejoin="round"/>
<path d="M13.3531 10.8824V13.3531C13.3531 13.7899 13.1796 14.2089 12.8707 14.5177C12.5618 14.8266 12.1428 15.0002 11.706 15.0002H2.64708C2.21025 15.0002 1.7913 14.8266 1.48242 14.5177C1.17353 14.2089 1 13.7899 1 13.3531V4.29406C1 3.85723 1.17353 3.43828 1.48242 3.12939C1.7913 2.8205 2.21025 2.64697 2.64708 2.64697H5.11769" stroke="#A8A8A8" stroke-width="2" stroke-linecap="round" stroke-linejoin="round"/>
</svg>
