<svg width="20" height="20" viewBox="0 0 20 20" fill="none" xmlns="http://www.w3.org/2000/svg">
<path d="M0 10C0 7.34784 1.05357 4.8043 2.92893 2.92893C4.8043 1.05357 7.34784 0 10 0C12.6522 0 15.1957 1.05357 17.0711 2.92893C18.9464 4.8043 20 7.34784 20 10C20 12.6522 18.9464 15.1957 17.0711 17.0711C15.1957 18.9464 12.6522 20 10 20C7.34784 20 4.8043 18.9464 2.92893 17.0711C1.05357 15.1957 0 12.6522 0 10ZM6.875 9.375C7.20652 9.375 7.52446 9.2433 7.75888 9.00888C7.9933 8.77446 8.125 8.45652 8.125 8.125C8.125 7.79348 7.9933 7.47554 7.75888 7.24112C7.52446 7.0067 7.20652 6.875 6.875 6.875C6.54348 6.875 6.22554 7.0067 5.99112 7.24112C5.7567 7.47554 5.625 7.79348 5.625 8.125C5.625 8.45652 5.7567 8.77446 5.99112 9.00888C6.22554 9.2433 6.54348 9.375 6.875 9.375ZM12.1875 13.125C12.1875 12.8377 12.1309 12.5533 12.021 12.2879C11.9111 12.0225 11.7499 11.7813 11.5468 11.5782C11.3437 11.3751 11.1025 11.2139 10.8371 11.104C10.5717 10.9941 10.2873 10.9375 10 10.9375C9.71273 10.9375 9.42828 10.9941 9.16288 11.104C8.89748 11.2139 8.65633 11.3751 8.4532 11.5782C8.25008 11.7813 8.08895 12.0225 7.97901 12.2879C7.86908 12.5533 7.8125 12.8377 7.8125 13.125C7.8125 13.7052 8.04297 14.2616 8.4532 14.6718C8.86344 15.082 9.41984 15.3125 10 15.3125C10.5802 15.3125 11.1366 15.082 11.5468 14.6718C11.957 14.2616 12.1875 13.7052 12.1875 13.125ZM13.125 9.375C13.4565 9.375 13.7745 9.2433 14.0089 9.00888C14.2433 8.77446 14.375 8.45652 14.375 8.125C14.375 7.79348 14.2433 7.47554 14.0089 7.24112C13.7745 7.0067 13.4565 6.875 13.125 6.875C12.7935 6.875 12.4755 7.0067 12.2411 7.24112C12.0067 7.47554 11.875 7.79348 11.875 8.125C11.875 8.45652 12.0067 8.77446 12.2411 9.00888C12.4755 9.2433 12.7935 9.375 13.125 9.375Z" fill="white"/>
</svg>
