<svg width="18" height="19" viewBox="0 0 18 19" fill="none" xmlns="http://www.w3.org/2000/svg">
<g clip-path="url(#clip0_119_1288)">
<path d="M6.27054 1.09195C4.47206 1.71586 2.92105 2.90006 1.84534 4.47061C0.769623 6.04116 0.2259 7.91528 0.294034 9.81769C0.362168 11.7201 1.03857 13.5505 2.22388 15.0401C3.40919 16.5297 5.04094 17.5999 6.87944 18.0935C8.36996 18.4781 9.93158 18.495 11.4301 18.1427C12.7875 17.8378 14.0426 17.1856 15.0723 16.2499C16.1439 15.2463 16.9218 13.9697 17.3223 12.5571C17.7575 11.021 17.835 9.40561 17.5487 7.83492H9.17866V11.307H14.026C13.9291 11.8607 13.7215 12.3892 13.4156 12.8609C13.1097 13.3326 12.7118 13.7377 12.2457 14.052C11.6538 14.4435 10.9865 14.7069 10.2868 14.8254C9.58499 14.9559 8.86515 14.9559 8.16335 14.8254C7.45205 14.6783 6.77918 14.3848 6.18757 13.9634C5.23715 13.2906 4.52352 12.3348 4.14851 11.2324C3.76715 10.1094 3.76715 8.89187 4.14851 7.76883C4.41545 6.98163 4.85674 6.26489 5.43944 5.67211C6.10628 4.98128 6.9505 4.48748 7.87951 4.24487C8.80851 4.00226 9.78639 4.02023 10.7058 4.2968C11.4241 4.51728 12.0809 4.90252 12.624 5.4218C13.1705 4.87805 13.7162 4.33289 14.2609 3.78633C14.5421 3.49242 14.8487 3.21258 15.1257 2.91164C14.2968 2.14028 13.3238 1.54006 12.2626 1.14539C10.33 0.443657 8.21535 0.424798 6.27054 1.09195Z" fill="white"/>
<path d="M6.27053 1.09215C8.21518 0.42454 10.3298 0.442902 12.2626 1.14418C13.324 1.54153 14.2965 2.14464 15.1243 2.91887C14.843 3.2198 14.5463 3.50105 14.2594 3.79355C13.7138 4.33824 13.1687 4.88105 12.624 5.42199C12.0809 4.90272 11.4241 4.51748 10.7058 4.29699C9.78668 4.01945 8.80883 4.00045 7.87959 4.24207C6.95034 4.48368 6.10559 4.97658 5.43803 5.66668C4.85532 6.25946 4.41403 6.9762 4.14709 7.7634L1.23193 5.50637C2.27538 3.43716 4.08205 1.85437 6.27053 1.09215Z" fill="#E33629"/>
<path d="M0.458551 7.74229C0.615237 6.96575 0.875368 6.21373 1.23199 5.50635L4.14714 7.769C3.76579 8.89204 3.76579 10.1096 4.14714 11.2326C3.17589 11.9826 2.20418 12.7363 1.23199 13.4938C0.339231 11.7168 0.066956 9.69205 0.458551 7.74229Z" fill="#F8BD00"/>
<path d="M9.1786 7.8335H17.5486C17.8349 9.40418 17.7575 11.0196 17.3222 12.5557C16.9217 13.9682 16.1439 15.2449 15.0722 16.2485C14.1314 15.5144 13.1864 14.786 12.2456 14.0519C12.7121 13.7373 13.1102 13.3318 13.4161 12.8596C13.722 12.3875 13.9294 11.8584 14.0259 11.3041H9.1786C9.1772 10.1482 9.1786 8.99084 9.1786 7.8335Z" fill="#587DBD"/>
<path d="M1.23047 13.4937C2.20266 12.7437 3.17437 11.9899 4.14562 11.2324C4.52139 12.3352 5.23604 13.291 6.1875 13.9634C6.78095 14.3828 7.45528 14.674 8.1675 14.8184C8.8693 14.9489 9.58914 14.9489 10.2909 14.8184C10.9907 14.6999 11.6579 14.4365 12.2498 14.0449C13.1906 14.779 14.1356 15.5074 15.0764 16.2415C14.0469 17.1777 12.7918 17.8304 11.4342 18.1357C9.93573 18.488 8.37411 18.4711 6.88359 18.0865C5.70474 17.7717 4.60361 17.2169 3.64922 16.4566C2.63905 15.6546 1.814 14.6439 1.23047 13.4937Z" fill="#319F43"/>
</g>
<defs>
<clipPath id="clip0_119_1288">
<rect width="18" height="18" fill="white" transform="translate(0 0.5)"/>
</clipPath>
</defs>
</svg>
