<svg width="20" height="20" viewBox="0 0 20 20" fill="none" xmlns="http://www.w3.org/2000/svg">
<path d="M9.99175 1.6665C5.39175 1.6665 1.66675 5.39984 1.66675 9.99984C1.66675 14.5998 5.39175 18.3332 9.99175 18.3332C14.6001 18.3332 18.3334 14.5998 18.3334 9.99984C18.3334 5.39984 14.6001 1.6665 9.99175 1.6665ZM15.7667 6.6665H13.3084C13.0472 5.63451 12.661 4.63826 12.1584 3.69984C13.6785 4.22317 14.9594 5.27627 15.7667 6.6665ZM10.0001 3.3665C10.6917 4.3665 11.2334 5.47484 11.5917 6.6665H8.40841C8.76675 5.47484 9.30841 4.3665 10.0001 3.3665ZM3.55008 11.6665C3.41675 11.1332 3.33341 10.5748 3.33341 9.99984C3.33341 9.42484 3.41675 8.8665 3.55008 8.33317H6.36675C6.30008 8.88317 6.25008 9.43317 6.25008 9.99984C6.25008 10.5665 6.30008 11.1165 6.36675 11.6665H3.55008ZM4.23341 13.3332H6.69175C6.95841 14.3748 7.34175 15.3748 7.84175 16.2998C6.32054 15.7785 5.03903 14.7249 4.23341 13.3332ZM6.69175 6.6665H4.23341C5.03903 5.2748 6.32054 4.22118 7.84175 3.69984C7.33915 4.63826 6.95296 5.63451 6.69175 6.6665ZM10.0001 16.6332C9.30841 15.6332 8.76675 14.5248 8.40841 13.3332H11.5917C11.2334 14.5248 10.6917 15.6332 10.0001 16.6332ZM11.9501 11.6665H8.05008C7.97508 11.1165 7.91675 10.5665 7.91675 9.99984C7.91675 9.43317 7.97508 8.87484 8.05008 8.33317H11.9501C12.0251 8.87484 12.0834 9.43317 12.0834 9.99984C12.0834 10.5665 12.0251 11.1165 11.9501 11.6665ZM12.1584 16.2998C12.6584 15.3748 13.0417 14.3748 13.3084 13.3332H15.7667C14.9594 14.7234 13.6785 15.7765 12.1584 16.2998ZM13.6334 11.6665C13.7001 11.1165 13.7501 10.5665 13.7501 9.99984C13.7501 9.43317 13.7001 8.88317 13.6334 8.33317H16.4501C16.5834 8.8665 16.6667 9.42484 16.6667 9.99984C16.6667 10.5748 16.5834 11.1332 16.4501 11.6665H13.6334Z" fill="#24C660"/>
</svg>
