<svg width="16" height="16" viewBox="0 0 16 16" fill="none" xmlns="http://www.w3.org/2000/svg">
<rect x="16" y="16" width="16" height="16" rx="8" transform="rotate(-180 16 16)" fill="#EF4444"/>
<path d="M3.33211 14L12.6654 14C13.4008 14 13.9988 13.402 13.9988 12.6667V10H12.6654V12.6667L3.33211 12.6667L3.33211 3.33333L12.6654 3.33333L12.6654 6H13.9988V3.33333C13.9988 2.598 13.4008 2 12.6654 2L3.33211 2C2.59678 2 1.99878 2.598 1.99878 3.33333L1.99878 12.6667C1.99878 13.402 2.59745 14 3.33211 14Z" fill="white"/>
<path d="M8.66667 5.33317L5.33333 7.99984L8.66667 10.6665V8.66584H14V7.3325H8.66667V5.33317Z" fill="white"/>
</svg>
