<svg width="20" height="20" viewBox="0 0 20 20" fill="none" xmlns="http://www.w3.org/2000/svg">
<rect width="20" height="20" fill="#FECCD0"/>
<path d="M4.66667 18.75C4.20833 18.75 3.81611 18.5869 3.49 18.2608C3.16389 17.9347 3.00056 17.5422 3 17.0833V8.75C3 8.29167 3.16333 7.89945 3.49 7.57333C3.81667 7.24722 4.20889 7.08389 4.66667 7.08333H5.5V5.41667C5.5 4.26389 5.90639 3.28139 6.71917 2.46917C7.53194 1.65695 8.51444 1.25056 9.66667 1.25C10.8189 1.24945 11.8017 1.65583 12.615 2.46917C13.4283 3.2825 13.8344 4.265 13.8333 5.41667V7.08333H14.6667C15.125 7.08333 15.5175 7.24667 15.8442 7.57333C16.1708 7.9 16.3339 8.29222 16.3333 8.75V17.0833C16.3333 17.5417 16.1703 17.9342 15.8442 18.2608C15.5181 18.5875 15.1256 18.7506 14.6667 18.75H4.66667ZM4.66667 17.0833H14.6667V8.75H4.66667V17.0833ZM9.66667 14.5833C10.125 14.5833 10.5175 14.4203 10.8442 14.0942C11.1708 13.7681 11.3339 13.3756 11.3333 12.9167C11.3328 12.4578 11.1697 12.0656 10.8442 11.74C10.5186 11.4144 10.1261 11.2511 9.66667 11.25C9.20722 11.2489 8.815 11.4122 8.49 11.74C8.165 12.0678 8.00167 12.46 8 12.9167C7.99833 13.3733 8.16167 13.7658 8.49 14.0942C8.81833 14.4225 9.21056 14.5856 9.66667 14.5833ZM7.16667 7.08333H12.1667V5.41667C12.1667 4.72222 11.9236 4.13195 11.4375 3.64583C10.9514 3.15972 10.3611 2.91667 9.66667 2.91667C8.97222 2.91667 8.38194 3.15972 7.89583 3.64583C7.40972 4.13195 7.16667 4.72222 7.16667 5.41667V7.08333Z" fill="#F15555"/>
</svg>
