<svg width="24" height="24" viewBox="0 0 24 24" fill="none" xmlns="http://www.w3.org/2000/svg">
<path d="M11 15.0001H13V12.5001H15.5V10.5001H13V8.00015H11V10.5001H8.5V12.5001H11V15.0001ZM12 20.9621C9.99067 20.3655 8.32167 19.1485 6.993 17.3111C5.66433 15.4738 5 13.4035 5 11.1001V5.69215L12 3.07715L19 5.69215V11.1001C19 13.4028 18.3357 15.4728 17.007 17.3101C15.6783 19.1475 14.0093 20.3641 12 20.9621ZM12 19.9011C13.7333 19.3511 15.1667 18.2511 16.3 16.6011C17.4333 14.9511 18 13.1178 18 11.1011V6.37515L12 4.14515L6 6.37515V11.1001C6 13.1168 6.56667 14.9501 7.7 16.6001C8.83333 18.2501 10.2667 19.3511 12 19.9011Z" fill="#48BE75"/>
</svg>
