<svg width="20" height="20" viewBox="0 0 20 20" fill="none" xmlns="http://www.w3.org/2000/svg">
<path d="M9.99999 14.7915C9.05229 14.7915 8.12587 14.5105 7.33788 13.984C6.5499 13.4574 5.93574 12.7091 5.57307 11.8335C5.2104 10.958 5.11551 9.99452 5.30039 9.06503C5.48528 8.13554 5.94164 7.28174 6.61177 6.61162C7.2819 5.94149 8.13569 5.48513 9.06518 5.30024C9.99467 5.11535 10.9581 5.21024 11.8337 5.57291C12.7092 5.93558 13.4576 6.54974 13.9841 7.33773C14.5106 8.12572 14.7917 9.05213 14.7917 9.99984C14.7895 11.27 14.2839 12.4875 13.3858 13.3856C12.4876 14.2838 11.2701 14.7893 9.99999 14.7915ZM9.99999 6.45817C9.29951 6.45817 8.61477 6.66589 8.03234 7.05505C7.44992 7.44421 6.99598 7.99734 6.72792 8.6445C6.45986 9.29165 6.38972 10.0038 6.52638 10.6908C6.66303 11.3778 7.00034 12.0089 7.49565 12.5042C7.99096 12.9995 8.62203 13.3368 9.30904 13.4735C9.99606 13.6101 10.7082 13.54 11.3553 13.2719C12.0025 13.0038 12.5556 12.5499 12.9448 11.9675C13.3339 11.3851 13.5417 10.7003 13.5417 9.99984C13.5395 9.0612 13.1656 8.16165 12.5019 7.49793C11.8382 6.83422 10.9386 6.46037 9.99999 6.45817ZM9.99999 4.1665C9.8349 4.16435 9.67718 4.0978 9.56043 3.98106C9.44369 3.86431 9.37715 3.70659 9.37499 3.5415V2.2915C9.37499 2.12574 9.44084 1.96677 9.55805 1.84956C9.67526 1.73235 9.83423 1.6665 9.99999 1.6665C10.1657 1.6665 10.3247 1.73235 10.4419 1.84956C10.5591 1.96677 10.625 2.12574 10.625 2.2915V3.5415C10.6228 3.70659 10.5563 3.86431 10.4395 3.98106C10.3228 4.0978 10.1651 4.16435 9.99999 4.1665ZM9.99999 18.3332C9.8349 18.331 9.67718 18.2645 9.56043 18.1477C9.44369 18.031 9.37715 17.8733 9.37499 17.7082V16.4582C9.37499 16.2924 9.44084 16.1334 9.55805 16.0162C9.67526 15.899 9.83423 15.8332 9.99999 15.8332C10.1657 15.8332 10.3247 15.899 10.4419 16.0162C10.5591 16.1334 10.625 16.2924 10.625 16.4582V17.7082C10.6228 17.8733 10.5563 18.031 10.4395 18.1477C10.3228 18.2645 10.1651 18.331 9.99999 18.3332ZM17.7083 10.6248H16.4583C16.2926 10.6248 16.1336 10.559 16.0164 10.4418C15.8992 10.3246 15.8333 10.1656 15.8333 9.99984C15.8333 9.83408 15.8992 9.67511 16.0164 9.5579C16.1336 9.44069 16.2926 9.37484 16.4583 9.37484H17.7083C17.8741 9.37484 18.0331 9.44069 18.1503 9.5579C18.2675 9.67511 18.3333 9.83408 18.3333 9.99984C18.3333 10.1656 18.2675 10.3246 18.1503 10.4418C18.0331 10.559 17.8741 10.6248 17.7083 10.6248ZM3.54166 10.6248H2.29166C2.1259 10.6248 1.96692 10.559 1.84971 10.4418C1.7325 10.3246 1.66666 10.1656 1.66666 9.99984C1.66666 9.83408 1.7325 9.67511 1.84971 9.5579C1.96692 9.44069 2.1259 9.37484 2.29166 9.37484H3.54166C3.70742 9.37484 3.86639 9.44069 3.9836 9.5579C4.10081 9.67511 4.16666 9.83408 4.16666 9.99984C4.16666 10.1656 4.10081 10.3246 3.9836 10.4418C3.86639 10.559 3.70742 10.6248 3.54166 10.6248ZM5.41666 6.0415C5.25587 6.02921 5.1063 5.95442 4.99999 5.83317L4.09166 4.99984C4.03201 4.9402 3.9847 4.86939 3.95243 4.79146C3.92015 4.71354 3.90353 4.63002 3.90353 4.54567C3.90353 4.46132 3.92015 4.3778 3.95243 4.29988C3.9847 4.22195 4.03201 4.15115 4.09166 4.0915C4.1513 4.03186 4.2221 3.98455 4.30003 3.95227C4.37796 3.92 4.46148 3.90338 4.54582 3.90338C4.63017 3.90338 4.71369 3.92 4.79162 3.95227C4.86954 3.98455 4.94035 4.03186 4.99999 4.0915L5.83332 4.99984C5.93581 5.11443 5.99248 5.26277 5.99248 5.4165C5.99248 5.57024 5.93581 5.71858 5.83332 5.83317C5.72702 5.95442 5.57744 6.02921 5.41666 6.0415ZM15.4667 16.0915C15.3845 16.0919 15.3032 16.0759 15.2273 16.0444C15.1515 16.0129 15.0827 15.9666 15.025 15.9082L14.1667 14.9998C14.111 14.8832 14.0928 14.7522 14.1146 14.6248C14.1365 14.4974 14.1973 14.3799 14.2887 14.2885C14.3801 14.1972 14.4976 14.1363 14.6249 14.1145C14.7523 14.0926 14.8834 14.1108 15 14.1665L15.9083 14.9998C16.0254 15.117 16.0911 15.2759 16.0911 15.4415C16.0911 15.6071 16.0254 15.766 15.9083 15.8832C15.8528 15.9461 15.7849 15.9971 15.709 16.0329C15.633 16.0687 15.5506 16.0887 15.4667 16.0915ZM14.5833 6.0415C14.4225 6.02921 14.273 5.95442 14.1667 5.83317C14.0642 5.71858 14.0075 5.57024 14.0075 5.4165C14.0075 5.26277 14.0642 5.11443 14.1667 4.99984L15 4.0915C15.1204 3.97105 15.2838 3.90338 15.4542 3.90338C15.6245 3.90338 15.7879 3.97105 15.9083 4.0915C16.0288 4.21196 16.0964 4.37532 16.0964 4.54567C16.0964 4.71602 16.0288 4.87938 15.9083 4.99984L15 5.83317C14.8937 5.95442 14.7441 6.02921 14.5833 6.0415ZM4.53332 16.0915C4.45121 16.0919 4.36984 16.0759 4.294 16.0444C4.21815 16.0129 4.14936 15.9666 4.09166 15.9082C3.97461 15.791 3.90887 15.6321 3.90887 15.4665C3.90887 15.3009 3.97461 15.142 4.09166 15.0248L4.99999 14.1665C5.11662 14.1108 5.24765 14.0926 5.37503 14.1145C5.50242 14.1363 5.61989 14.1972 5.71128 14.2885C5.80268 14.3799 5.86349 14.4974 5.88534 14.6248C5.9072 14.7522 5.88902 14.8832 5.83332 14.9998L4.99999 15.9082C4.93938 15.9697 4.86652 16.0178 4.78613 16.0494C4.70574 16.081 4.61961 16.0953 4.53332 16.0915Z" fill="#D8A12D"/>
</svg>
